<?xml version="1.0" encoding="UTF-8" standalone="no"?><!DOCTYPE svg PUBLIC "-//W3C//DTD SVG 1.1//EN" "http://www.w3.org/Graphics/SVG/1.1/DTD/svg11.dtd"><svg width="100%" height="100%" viewBox="0 0 1200 1200" version="1.1" xmlns="http://www.w3.org/2000/svg" xmlns:xlink="http://www.w3.org/1999/xlink" xml:space="preserve" xmlns:serif="http://www.serif.com/" style="fill-rule:evenodd;clip-rule:evenodd;stroke-linejoin:round;stroke-miterlimit:2;"><g id="Comp-Negativo" serif:id="Comp Negativo"><g id="Logo-Negativo" serif:id="Logo Negativo"><path d="M475,575l0,80l-390,0l0,-400l390,-0l0,80l-310,0l0,240l310,0Z" style="fill:#fff;"/><path d="M725,165l0,-80l390,0l0,400l-390,0l0,-80l310,0l0,-240l-310,0Z" style="fill:#fff;"/><rect x="245" y="425" width="230" height="60" style="fill:#ff6e00;"/><rect x="725" y="255" width="230" height="60" style="fill:#ff6e00;"/><path d="M725,85l0,11l-250,170l0,-11l250,-170Z" style="fill:#ff6e00;"/><path d="M725,255l0,11l-250,170l0,-11l250,-170Z" style="fill:#ff6e00;"/><path d="M725,304l0,11l-250,170l0,-11l250,-170Z" style="fill:#ff6e00;"/><path d="M725,154l0,11l-250,170l0,-11l250,-170Z" style="fill:#ff6e00;"/><path d="M725,405l0,11l-250,170l0,-11l250,-170Z" style="fill:#ff6e00;"/><path d="M725,474l0,11l-250,170l0,-11l250,-170Z" style="fill:#ff6e00;"/></g><g id="Texto-Negativo" serif:id="Texto Negativo"><g transform="matrix(250,0,0,250,326.447,890.000001)"><path d="M0.1,-0l0,-0.7l0.434,0l0,0.093l-0.338,0l-0,0.514l0.337,0l0,0.093l-0.433,-0Zm0.044,-0.313l0,-0.093l0.335,0l0,0.093l-0.335,0Z" style="fill:#fff;fill-rule:nonzero;"/></g><g transform="matrix(250,0,0,250,490.947,890.000001)"><path d="M0.576,-0l-0.086,-0.091l-0.017,-0.019l-0.178,-0.198c-0.018,-0.021 -0.035,-0.041 -0.051,-0.06c-0.016,-0.02 -0.029,-0.039 -0.04,-0.057c-0.011,-0.019 -0.02,-0.037 -0.026,-0.054c-0.006,-0.018 -0.01,-0.034 -0.01,-0.05c0,-0.034 0.009,-0.065 0.026,-0.092c0.018,-0.027 0.042,-0.048 0.073,-0.064c0.031,-0.015 0.067,-0.023 0.107,-0.023c0.03,0 0.059,0.005 0.085,0.016c0.026,0.011 0.048,0.026 0.067,0.046c0.019,0.02 0.033,0.042 0.041,0.068l-0.071,0.045c-0.013,-0.032 -0.029,-0.055 -0.049,-0.069c-0.02,-0.014 -0.044,-0.021 -0.073,-0.021c-0.023,0 -0.042,0.004 -0.058,0.011c-0.016,0.007 -0.028,0.017 -0.036,0.031c-0.008,0.013 -0.013,0.03 -0.013,0.05c0,0.015 0.004,0.031 0.012,0.049c0.008,0.017 0.019,0.035 0.031,0.053c0.013,0.018 0.025,0.034 0.039,0.049c0.013,0.015 0.025,0.028 0.035,0.04l0.15,0.167l0.027,0.03l0.134,0.146l-0.121,-0Zm-0.268,0.01c-0.048,0 -0.092,-0.01 -0.131,-0.03c-0.039,-0.02 -0.07,-0.047 -0.093,-0.081c-0.023,-0.034 -0.034,-0.071 -0.034,-0.112c0,-0.052 0.014,-0.097 0.043,-0.136c0.029,-0.039 0.072,-0.068 0.128,-0.089l0.058,0.069c-0.044,0.01 -0.077,0.027 -0.098,0.051c-0.022,0.024 -0.033,0.054 -0.033,0.092c0,0.029 0.007,0.055 0.022,0.078c0.015,0.023 0.035,0.04 0.062,0.053c0.027,0.013 0.058,0.019 0.094,0.019c0.031,0 0.06,-0.006 0.086,-0.018c0.026,-0.012 0.049,-0.029 0.07,-0.051c0.021,-0.022 0.037,-0.049 0.051,-0.08c0.013,-0.031 0.023,-0.066 0.029,-0.104l0.085,0c-0.005,0.041 -0.015,0.078 -0.028,0.113c-0.014,0.035 -0.03,0.066 -0.05,0.094c-0.02,0.028 -0.043,0.052 -0.069,0.071c-0.026,0.02 -0.055,0.035 -0.087,0.045c-0.032,0.01 -0.066,0.015 -0.103,0.015Z" style="fill:#fff;fill-rule:nonzero;"/></g><g transform="matrix(250,0,0,250,686.197,890.000001)"><path d="M0.386,0.01c-0.049,0 -0.094,-0.009 -0.136,-0.026c-0.041,-0.017 -0.077,-0.042 -0.107,-0.075c-0.03,-0.032 -0.054,-0.071 -0.07,-0.115c-0.017,-0.044 -0.025,-0.092 -0.025,-0.145c0,-0.05 0.009,-0.097 0.026,-0.14c0.017,-0.043 0.042,-0.081 0.073,-0.113c0.031,-0.033 0.068,-0.058 0.109,-0.076c0.041,-0.018 0.086,-0.027 0.135,-0.027c0.033,0 0.066,0.005 0.099,0.015c0.032,0.01 0.062,0.025 0.088,0.043c0.027,0.018 0.048,0.039 0.065,0.062l-0.065,0.068c-0.018,-0.02 -0.038,-0.036 -0.058,-0.05c-0.02,-0.014 -0.042,-0.024 -0.063,-0.031c-0.022,-0.007 -0.044,-0.011 -0.066,-0.011c-0.035,0 -0.067,0.006 -0.097,0.019c-0.03,0.013 -0.056,0.031 -0.078,0.054c-0.022,0.023 -0.039,0.051 -0.052,0.082c-0.012,0.032 -0.019,0.066 -0.019,0.104c0,0.039 0.006,0.075 0.018,0.108c0.012,0.032 0.03,0.06 0.052,0.083c0.023,0.023 0.049,0.041 0.08,0.053c0.031,0.012 0.065,0.019 0.103,0.019c0.023,0 0.046,-0.003 0.068,-0.01c0.022,-0.006 0.043,-0.015 0.062,-0.027c0.019,-0.012 0.036,-0.026 0.051,-0.041l0.048,0.079c-0.015,0.018 -0.036,0.035 -0.062,0.049c-0.026,0.015 -0.055,0.026 -0.087,0.034c-0.032,0.008 -0.063,0.013 -0.095,0.013Z" style="fill:#fff;fill-rule:nonzero;"/></g><g transform="matrix(250,0,0,250,855.697,890.000001)"></g><g transform="matrix(123,0,0,123,81.9025,1036.000003)"><path d="M0.391,0.01c-0.05,0 -0.096,-0.009 -0.138,-0.026c-0.042,-0.017 -0.078,-0.042 -0.109,-0.075c-0.031,-0.032 -0.055,-0.071 -0.072,-0.115c-0.017,-0.044 -0.025,-0.093 -0.025,-0.145c0,-0.051 0.009,-0.098 0.027,-0.141c0.018,-0.043 0.043,-0.081 0.075,-0.114c0.032,-0.033 0.069,-0.058 0.112,-0.076c0.043,-0.018 0.089,-0.027 0.139,-0.027c0.034,-0 0.067,0.005 0.099,0.015c0.032,0.01 0.062,0.024 0.088,0.041c0.027,0.018 0.049,0.038 0.067,0.062l-0.084,0.09c-0.017,-0.018 -0.035,-0.033 -0.053,-0.045c-0.018,-0.012 -0.037,-0.022 -0.057,-0.028c-0.02,-0.006 -0.04,-0.01 -0.061,-0.01c-0.031,0 -0.059,0.006 -0.086,0.017c-0.027,0.011 -0.05,0.027 -0.07,0.048c-0.02,0.021 -0.035,0.045 -0.047,0.074c-0.011,0.028 -0.017,0.06 -0.017,0.094c-0,0.035 0.006,0.068 0.017,0.096c0.011,0.029 0.027,0.054 0.047,0.074c0.02,0.02 0.044,0.036 0.073,0.047c0.028,0.011 0.06,0.016 0.094,0.016c0.022,0 0.043,-0.003 0.063,-0.009c0.021,-0.006 0.04,-0.014 0.058,-0.025c0.018,-0.011 0.034,-0.024 0.048,-0.038l0.064,0.103c-0.016,0.018 -0.037,0.035 -0.064,0.049c-0.027,0.015 -0.057,0.026 -0.089,0.034c-0.033,0.008 -0.066,0.013 -0.099,0.013Z" style="fill:#fff;fill-rule:nonzero;"/></g><g transform="matrix(123,0,0,123,166.0345,1036.000003)"><path d="M0.397,0.01c-0.051,0 -0.097,-0.009 -0.14,-0.027c-0.043,-0.018 -0.08,-0.043 -0.111,-0.076c-0.032,-0.032 -0.056,-0.071 -0.073,-0.114c-0.017,-0.044 -0.026,-0.092 -0.026,-0.144c0,-0.052 0.009,-0.1 0.026,-0.144c0.017,-0.044 0.042,-0.082 0.073,-0.114c0.032,-0.032 0.069,-0.058 0.111,-0.076c0.043,-0.018 0.089,-0.027 0.139,-0.027c0.051,0 0.097,0.009 0.14,0.027c0.042,0.018 0.08,0.043 0.111,0.076c0.032,0.033 0.056,0.071 0.073,0.115c0.017,0.044 0.026,0.092 0.026,0.143c0,0.052 -0.009,0.1 -0.026,0.143c-0.017,0.044 -0.042,0.082 -0.073,0.115c-0.032,0.033 -0.069,0.058 -0.111,0.076c-0.042,0.018 -0.089,0.027 -0.139,0.027Zm-0,-0.124c0.032,-0 0.061,-0.006 0.087,-0.018c0.026,-0.012 0.049,-0.028 0.069,-0.05c0.019,-0.021 0.034,-0.046 0.045,-0.075c0.011,-0.029 0.016,-0.06 0.016,-0.094c0,-0.034 -0.005,-0.066 -0.016,-0.094c-0.011,-0.029 -0.026,-0.054 -0.045,-0.075c-0.019,-0.021 -0.042,-0.038 -0.069,-0.05c-0.026,-0.012 -0.055,-0.018 -0.087,-0.018c-0.032,0 -0.061,0.006 -0.087,0.018c-0.026,0.012 -0.049,0.028 -0.069,0.049c-0.02,0.021 -0.035,0.046 -0.045,0.075c-0.011,0.029 -0.016,0.06 -0.016,0.095c0,0.034 0.005,0.066 0.016,0.095c0.011,0.029 0.026,0.054 0.045,0.075c0.02,0.021 0.043,0.038 0.069,0.049c0.026,0.012 0.056,0.018 0.087,0.018Z" style="fill:#fff;fill-rule:nonzero;"/></g><g transform="matrix(123,0,0,123,263.5735,1036.000003)"><path d="M0.094,-0l0,-0.7l0.117,0l0.406,0.547l-0.022,0.004c-0.003,-0.019 -0.005,-0.038 -0.007,-0.058c-0.002,-0.02 -0.004,-0.04 -0.006,-0.061c-0.002,-0.021 -0.003,-0.044 -0.004,-0.067c-0.001,-0.023 -0.002,-0.048 -0.002,-0.074c-0.001,-0.026 -0.001,-0.053 -0.001,-0.082l0,-0.21l0.128,0l0,0.7l-0.119,-0l-0.408,-0.539l0.025,-0.006c0.003,0.037 0.006,0.069 0.008,0.096c0.002,0.026 0.004,0.049 0.006,0.068c0.002,0.019 0.003,0.035 0.004,0.047c0.001,0.013 0.001,0.024 0.002,0.034c0,0.01 0.001,0.02 0.001,0.03l0,0.271l-0.128,-0Z" style="fill:#fff;fill-rule:nonzero;"/></g><g transform="matrix(123,0,0,123,361.7275,1036.000003)"><path d="M0.316,0.01c-0.041,0 -0.078,-0.005 -0.112,-0.015c-0.034,-0.01 -0.065,-0.026 -0.092,-0.046c-0.027,-0.021 -0.051,-0.046 -0.073,-0.075l0.084,-0.096c0.033,0.046 0.065,0.077 0.096,0.094c0.031,0.017 0.067,0.026 0.106,0.026c0.023,0 0.043,-0.003 0.062,-0.01c0.018,-0.007 0.033,-0.016 0.044,-0.029c0.011,-0.012 0.016,-0.026 0.016,-0.043c0,-0.011 -0.002,-0.022 -0.007,-0.032c-0.004,-0.01 -0.011,-0.018 -0.019,-0.026c-0.009,-0.008 -0.019,-0.015 -0.032,-0.021c-0.013,-0.006 -0.027,-0.012 -0.043,-0.017c-0.016,-0.005 -0.034,-0.009 -0.053,-0.013c-0.037,-0.008 -0.069,-0.018 -0.096,-0.03c-0.027,-0.012 -0.05,-0.027 -0.069,-0.046c-0.018,-0.018 -0.032,-0.039 -0.041,-0.062c-0.009,-0.023 -0.013,-0.049 -0.013,-0.078c0,-0.029 0.007,-0.056 0.02,-0.081c0.013,-0.025 0.031,-0.046 0.053,-0.064c0.023,-0.018 0.049,-0.032 0.079,-0.042c0.03,-0.01 0.063,-0.015 0.097,-0.015c0.039,0 0.075,0.005 0.106,0.014c0.031,0.009 0.058,0.023 0.082,0.041c0.023,0.018 0.043,0.04 0.059,0.067l-0.086,0.084c-0.014,-0.02 -0.029,-0.037 -0.045,-0.051c-0.017,-0.014 -0.034,-0.024 -0.054,-0.031c-0.019,-0.007 -0.04,-0.01 -0.061,-0.01c-0.024,0 -0.045,0.003 -0.062,0.01c-0.018,0.007 -0.031,0.016 -0.041,0.029c-0.01,0.012 -0.015,0.027 -0.015,0.044c0,0.013 0.003,0.025 0.009,0.035c0.006,0.01 0.014,0.02 0.025,0.028c0.011,0.008 0.025,0.015 0.043,0.021c0.017,0.006 0.037,0.011 0.059,0.016c0.037,0.008 0.07,0.018 0.099,0.03c0.029,0.012 0.054,0.027 0.075,0.044c0.021,0.017 0.036,0.036 0.047,0.058c0.011,0.022 0.016,0.046 0.016,0.072c0,0.046 -0.011,0.086 -0.033,0.119c-0.022,0.033 -0.052,0.058 -0.091,0.076c-0.039,0.018 -0.085,0.027 -0.138,0.027Z" style="fill:#fff;fill-rule:nonzero;"/></g><g transform="matrix(123,0,0,123,438.8485,1036.000003)"><path d="M0.234,-0l0,-0.58l-0.2,0l-0,-0.12l0.536,0l0,0.12l-0.206,0l0,0.58l-0.13,-0Z" style="fill:#fff;fill-rule:nonzero;"/></g><g transform="matrix(123,0,0,123,513.1405,1036.000003)"><path d="M0.094,-0l0,-0.7l0.304,0c0.042,0 0.08,0.01 0.114,0.029c0.035,0.02 0.062,0.046 0.082,0.08c0.02,0.034 0.03,0.072 0.03,0.114c0,0.04 -0.01,0.077 -0.03,0.11c-0.02,0.033 -0.048,0.06 -0.082,0.08c-0.034,0.02 -0.073,0.03 -0.115,0.03l-0.177,0l0,0.257l-0.127,-0Zm0.406,-0l-0.178,-0.316l0.133,-0.025l0.198,0.342l-0.153,-0.001Zm-0.279,-0.37l0.178,0c0.019,0 0.035,-0.004 0.05,-0.013c0.014,-0.009 0.026,-0.021 0.034,-0.037c0.008,-0.016 0.012,-0.034 0.012,-0.053c-0,-0.022 -0.005,-0.04 -0.015,-0.057c-0.01,-0.016 -0.024,-0.029 -0.042,-0.038c-0.018,-0.009 -0.039,-0.014 -0.062,-0.014l-0.155,0l0,0.212Z" style="fill:#fff;fill-rule:nonzero;"/></g><g transform="matrix(123,0,0,123,598.2565,1036.000003)"><path d="M0.374,0.006c-0.055,0 -0.105,-0.012 -0.148,-0.036c-0.044,-0.024 -0.078,-0.056 -0.103,-0.098c-0.025,-0.042 -0.037,-0.089 -0.037,-0.142l0,-0.432l0.13,0l0,0.423c-0,0.031 0.007,0.059 0.022,0.083c0.014,0.025 0.034,0.044 0.057,0.059c0.024,0.014 0.05,0.022 0.079,0.022c0.03,0 0.058,-0.007 0.082,-0.022c0.024,-0.015 0.044,-0.034 0.058,-0.059c0.015,-0.025 0.022,-0.052 0.022,-0.083l0,-0.423l0.125,0l0,0.432c0,0.053 -0.012,0.1 -0.037,0.142c-0.025,0.042 -0.059,0.074 -0.103,0.098c-0.044,0.024 -0.093,0.035 -0.148,0.035Z" style="fill:#fff;fill-rule:nonzero;"/></g><g transform="matrix(123,0,0,123,690.3835,1036.000003)"><path d="M0.391,0.01c-0.05,0 -0.096,-0.009 -0.138,-0.026c-0.042,-0.017 -0.078,-0.042 -0.109,-0.075c-0.031,-0.032 -0.055,-0.071 -0.072,-0.115c-0.017,-0.044 -0.025,-0.093 -0.025,-0.145c0,-0.051 0.009,-0.098 0.027,-0.141c0.018,-0.043 0.043,-0.081 0.075,-0.114c0.032,-0.033 0.069,-0.058 0.112,-0.076c0.043,-0.018 0.089,-0.027 0.139,-0.027c0.034,-0 0.067,0.005 0.099,0.015c0.032,0.01 0.062,0.024 0.088,0.041c0.027,0.018 0.049,0.038 0.067,0.062l-0.084,0.09c-0.017,-0.018 -0.035,-0.033 -0.053,-0.045c-0.018,-0.012 -0.037,-0.022 -0.057,-0.028c-0.02,-0.006 -0.04,-0.01 -0.061,-0.01c-0.031,0 -0.059,0.006 -0.086,0.017c-0.027,0.011 -0.05,0.027 -0.07,0.048c-0.02,0.021 -0.035,0.045 -0.047,0.074c-0.011,0.028 -0.017,0.06 -0.017,0.094c-0,0.035 0.006,0.068 0.017,0.096c0.011,0.029 0.027,0.054 0.047,0.074c0.02,0.02 0.044,0.036 0.073,0.047c0.028,0.011 0.06,0.016 0.094,0.016c0.022,0 0.043,-0.003 0.063,-0.009c0.021,-0.006 0.04,-0.014 0.058,-0.025c0.018,-0.011 0.034,-0.024 0.048,-0.038l0.064,0.103c-0.016,0.018 -0.037,0.035 -0.064,0.049c-0.027,0.015 -0.057,0.026 -0.089,0.034c-0.033,0.008 -0.066,0.013 -0.099,0.013Z" style="fill:#fff;fill-rule:nonzero;"/></g><g transform="matrix(123,0,0,123,774.5155,1036.000003)"><path d="M0.234,-0l0,-0.58l-0.2,0l-0,-0.12l0.536,0l0,0.12l-0.206,0l0,0.58l-0.13,-0Z" style="fill:#fff;fill-rule:nonzero;"/></g><g transform="matrix(123,0,0,123,845.1175,1036.000003)"><path d="M0.397,0.01c-0.051,0 -0.097,-0.009 -0.14,-0.027c-0.043,-0.018 -0.08,-0.043 -0.111,-0.076c-0.032,-0.032 -0.056,-0.071 -0.073,-0.114c-0.017,-0.044 -0.026,-0.092 -0.026,-0.144c0,-0.052 0.009,-0.1 0.026,-0.144c0.017,-0.044 0.042,-0.082 0.073,-0.114c0.032,-0.032 0.069,-0.058 0.111,-0.076c0.043,-0.018 0.089,-0.027 0.139,-0.027c0.051,0 0.097,0.009 0.14,0.027c0.042,0.018 0.08,0.043 0.111,0.076c0.032,0.033 0.056,0.071 0.073,0.115c0.017,0.044 0.026,0.092 0.026,0.143c0,0.052 -0.009,0.1 -0.026,0.143c-0.017,0.044 -0.042,0.082 -0.073,0.115c-0.032,0.033 -0.069,0.058 -0.111,0.076c-0.042,0.018 -0.089,0.027 -0.139,0.027Zm-0,-0.124c0.032,-0 0.061,-0.006 0.087,-0.018c0.026,-0.012 0.049,-0.028 0.069,-0.05c0.019,-0.021 0.034,-0.046 0.045,-0.075c0.011,-0.029 0.016,-0.06 0.016,-0.094c0,-0.034 -0.005,-0.066 -0.016,-0.094c-0.011,-0.029 -0.026,-0.054 -0.045,-0.075c-0.019,-0.021 -0.042,-0.038 -0.069,-0.05c-0.026,-0.012 -0.055,-0.018 -0.087,-0.018c-0.032,0 -0.061,0.006 -0.087,0.018c-0.026,0.012 -0.049,0.028 -0.069,0.049c-0.02,0.021 -0.035,0.046 -0.045,0.075c-0.011,0.029 -0.016,0.06 -0.016,0.095c0,0.034 0.005,0.066 0.016,0.095c0.011,0.029 0.026,0.054 0.045,0.075c0.02,0.021 0.043,0.038 0.069,0.049c0.026,0.012 0.056,0.018 0.087,0.018Z" style="fill:#fff;fill-rule:nonzero;"/></g><g transform="matrix(123,0,0,123,942.6565,1036.000003)"><path d="M0.094,-0l0,-0.7l0.304,0c0.042,0 0.08,0.01 0.114,0.029c0.035,0.02 0.062,0.046 0.082,0.08c0.02,0.034 0.03,0.072 0.03,0.114c0,0.04 -0.01,0.077 -0.03,0.11c-0.02,0.033 -0.048,0.06 -0.082,0.08c-0.034,0.02 -0.073,0.03 -0.115,0.03l-0.177,0l0,0.257l-0.127,-0Zm0.406,-0l-0.178,-0.316l0.133,-0.025l0.198,0.342l-0.153,-0.001Zm-0.279,-0.37l0.178,0c0.019,0 0.035,-0.004 0.05,-0.013c0.014,-0.009 0.026,-0.021 0.034,-0.037c0.008,-0.016 0.012,-0.034 0.012,-0.053c-0,-0.022 -0.005,-0.04 -0.015,-0.057c-0.01,-0.016 -0.024,-0.029 -0.042,-0.038c-0.018,-0.009 -0.039,-0.014 -0.062,-0.014l-0.155,0l0,0.212Z" style="fill:#fff;fill-rule:nonzero;"/></g><g transform="matrix(123,0,0,123,1028.3875,1036.000003)"><path d="M0.016,-0l0.273,-0.7l0.122,0l0.271,0.7l-0.135,-0l-0.15,-0.398c-0.003,-0.008 -0.007,-0.021 -0.013,-0.038c-0.006,-0.017 -0.012,-0.036 -0.018,-0.056c-0.007,-0.02 -0.013,-0.039 -0.018,-0.057c-0.006,-0.018 -0.01,-0.031 -0.012,-0.039l0.025,-0.001c-0.004,0.013 -0.009,0.028 -0.014,0.045c-0.005,0.017 -0.011,0.034 -0.017,0.052c-0.006,0.018 -0.012,0.035 -0.018,0.052c-0.006,0.017 -0.011,0.031 -0.016,0.045l-0.149,0.395l-0.13,-0Zm0.124,-0.16l0.045,-0.113l0.319,0l0.048,0.113l-0.412,0Z" style="fill:#fff;fill-rule:nonzero;"/></g><g transform="matrix(123,0,0,123,1114.2415,1036.000003)"></g></g></g></svg>