<?xml version="1.0" encoding="UTF-8" standalone="no"?>
<!DOCTYPE svg PUBLIC "-//W3C//DTD SVG 1.1//EN" "http://www.w3.org/Graphics/SVG/1.1/DTD/svg11.dtd">
<svg width="100%" height="100%" viewBox="0 0 1030 1030" version="1.1" xmlns="http://www.w3.org/2000/svg" xmlns:xlink="http://www.w3.org/1999/xlink" xml:space="preserve" xmlns:serif="http://www.serif.com/" style="fill-rule:evenodd;clip-rule:evenodd;stroke-linejoin:round;stroke-miterlimit:2;">
    <g transform="matrix(1,0,0,1,-85,-85)">
        <g transform="matrix(0.942352,0,0,0.953453,14.657534,328.243243)">
            <path d="M488.504,500.031L488.504,583.937L74.646,583.937L74.646,164.409L488.504,164.409L488.504,248.315L159.54,248.315L159.54,500.031L488.504,500.031ZM753.798,70.016L753.798,-13.89L1167.656,-13.89L1167.656,405.638L753.798,405.638L753.798,321.732L1082.762,321.732L1082.762,70.016L753.798,70.016Z"/>
        </g>
        <g transform="matrix(0.73955,0,0,0.246914,123.713842,594.231072)">
            <path d="M475,489.114L164,489.114L164,246.114L475,246.114L813.043,-442.386L1124.044,-442.386L1124.044,-199.386L813.043,-199.386L475,489.114ZM475,290.664L475,444.564L813.043,-243.936L813.043,-397.836L475,290.664ZM813.043,-1130.886L813.043,-1086.336L475,-397.836L475,-442.386L813.043,-1130.886ZM813.043,-851.436L813.043,-806.886L475,-118.386L475,-162.936L813.043,-851.436ZM813.043,165.114L813.043,209.664L475,898.164L475,853.614L813.043,165.114ZM813.043,444.564L813.043,489.114L475,1177.614L475,1133.064L813.043,444.564Z" style="fill:rgb(255,110,0);"/>
        </g>
    </g>
</svg>
